<svg width="28" height="28" viewBox="0 0 28 28" fill="none" xmlns="http://www.w3.org/2000/svg">
<rect width="28" height="28" rx="14" fill="black"/>
<path d="M9.39504 7.75708L14 5L18.605 7.75708L16.9119 8.77561L14 7.03708L11.088 8.77561L9.39504 7.75708ZM18.605 11.2341L16.9119 10.2156L14 11.9541L11.088 10.2156L9.39504 11.2341V13.2712L12.307 15.0097V18.4868L14 19.5054L15.693 18.4868V15.0097L18.605 13.2712V11.2341ZM18.605 16.7483V14.7112L16.9119 15.7297V17.7668L18.605 16.7483ZM19.807 17.4683L16.895 19.2068V21.2439L21.5 18.4868V12.9727L19.807 13.9912V17.4683ZM18.114 9.49561L19.807 10.5141V12.5512L21.5 11.5327V9.49561L19.807 8.47707L18.114 9.49561ZM12.307 19.9444V21.9815L14 23L15.693 21.9815V19.9444L14 20.9629L12.307 19.9444ZM9.39504 16.7483L11.088 17.7668V15.7297L9.39504 14.7112V16.7483ZM12.307 9.49561L14 10.5141L15.693 9.49561L14 8.47707L12.307 9.49561ZM8.193 10.5141L9.886 9.49561L8.193 8.47707L6.5 9.49561V11.5327L8.193 12.5512V10.5141ZM8.193 13.9912L6.5 12.9727V18.4868L11.105 21.2439V19.2068L8.193 17.4683V13.9912Z" fill="#F0B90B"/>
</svg>
