<svg width="32" height="32" viewBox="0 0 32 32" fill="none" xmlns="http://www.w3.org/2000/svg">
<circle cx="16" cy="16" r="16" fill="#D87F2D"/>
<path d="M23.6672 18.4947L18.0177 9.13582C17.5906 8.4247 16.8363 8 15.9999 8C15.1636 8 14.4093 8.4247 13.9822 9.13582L8.33319 18.4947C7.89694 19.2208 7.88869 20.0928 8.31072 20.827C8.73372 21.5617 9.49579 22 10.3504 22H21.6495C22.5041 22 23.2662 21.5617 23.6892 20.827C24.1113 20.0928 24.103 19.2208 23.6672 18.4947ZM16 10.8613C16.5183 10.8613 16.9385 11.2769 16.9385 11.7895V15.5024C16.9385 16.015 16.5183 16.4307 16 16.4307C15.4816 16.4307 15.0615 16.015 15.0615 15.5024V11.7895C15.0614 11.2769 15.4816 10.8613 16 10.8613ZM16 20.1435C15.2237 20.1435 14.5922 19.519 14.5922 18.7512C14.5922 17.9834 15.2237 17.3588 16 17.3588C16.7763 17.3588 17.4078 17.9834 17.4078 18.7512C17.4077 19.519 16.7763 20.1435 16 20.1435Z" fill="white"/>
</svg>
