<svg width="32" height="32" viewBox="0 0 32 32" fill="none" xmlns="http://www.w3.org/2000/svg">
<circle cx="16" cy="16" r="16" fill="#3D9651"/>
<path d="M15.2101 22.9999C15.1556 22.9999 15.1018 22.9899 15.0519 22.9706C15.002 22.9514 14.9572 22.9232 14.9202 22.8879L7.10487 15.4236C7.05277 15.3738 7.01824 15.3117 7.00549 15.2449C6.99273 15.178 7.00233 15.1094 7.03308 15.0473C7.06384 14.9852 7.11443 14.9324 7.17866 14.8953C7.24289 14.8582 7.31798 14.8384 7.39473 14.8384H11.1566C11.2131 14.8384 11.2689 14.8492 11.3203 14.8698C11.3717 14.8905 11.4175 14.9207 11.4546 14.9583L14.0665 17.6115C14.3488 17.0787 14.8952 16.1916 15.8541 15.1107C17.2717 13.5127 19.9085 11.1625 24.4197 9.0409C24.5069 8.9999 24.6084 8.98926 24.704 9.01108C24.7996 9.0329 24.8825 9.08559 24.9363 9.15874C24.9901 9.2319 25.0109 9.32021 24.9946 9.40623C24.9782 9.49225 24.9259 9.56973 24.848 9.62337C24.8308 9.63525 23.0914 10.8447 21.0896 13.0599C19.2473 15.0984 16.7982 18.4318 15.5931 22.7351C15.572 22.8107 15.5227 22.8779 15.4533 22.9259C15.3838 22.9739 15.2982 23 15.21 23L15.2101 22.9999Z" fill="white"/>
</svg>
