<svg width="32" height="32" viewBox="0 0 32 32" fill="none" xmlns="http://www.w3.org/2000/svg">
<circle cx="16" cy="16" r="16" fill="#2477D1"/>
<path d="M22.9984 12.0306C22.9943 11.7657 22.8499 11.5294 22.6247 11.4098L16.3045 8.07582C16.1132 7.97473 15.8874 7.97473 15.6955 8.07582L9.37527 11.4098C9.14945 11.5294 9.00568 11.7657 9.00161 12.0306C8.97245 13.9407 9.26948 21.6416 15.7715 23.961C15.9166 24.013 16.0827 24.013 16.2279 23.961C22.7305 21.6416 23.0275 13.9407 22.9984 12.0306ZM18.9262 15.3595L17.9103 16.3989C17.8147 16.4972 17.7706 16.6382 17.7937 16.7763L18.0337 18.2435C18.0907 18.5917 17.7428 18.8572 17.4444 18.6928L16.1892 18.0001C16.0712 17.9346 15.9295 17.9346 15.8115 18.0001L14.5562 18.6928C14.2585 18.8572 13.9107 18.5917 13.9669 18.2435L14.207 16.7763C14.2294 16.6382 14.186 16.4972 14.0904 16.3989L13.0745 15.3595C12.8338 15.1132 12.9667 14.6832 13.2997 14.6327L14.7034 14.4184C14.8356 14.3984 14.9502 14.3109 15.0092 14.1849L15.6372 12.85C15.7864 12.5332 16.2163 12.5332 16.3655 12.85L16.9935 14.1849C17.0525 14.3109 17.1671 14.3977 17.2993 14.4184L18.7031 14.6327C19.034 14.6839 19.1669 15.1132 18.9262 15.3595Z" fill="white"/>
</svg>
