<svg width="184" height="34" viewBox="0 0 184 34" fill="none" xmlns="http://www.w3.org/2000/svg">
<path d="M42.8333 19.0633C42.8333 17.4633 43.1901 16.0355 43.9039 14.7797C44.6379 13.524 45.6353 12.5316 46.8945 11.8025C48.1538 11.0734 49.5804 10.7089 51.1759 10.7089C52.7914 10.7089 54.2188 11.0734 55.4573 11.8025C56.7165 12.5316 57.7024 13.524 58.4164 14.7797C59.1505 16.0355 59.5182 17.4633 59.5182 19.0633C59.5182 20.6633 59.1505 22.0911 58.4164 23.3468C57.7024 24.6026 56.7165 25.5949 55.4573 26.3241C54.2188 27.0532 52.7914 27.4177 51.1759 27.4177C49.5804 27.4177 48.1538 27.0532 46.8945 26.3241C45.6353 25.5949 44.6379 24.6026 43.9039 23.3468C43.1901 22.0911 42.8333 20.6633 42.8333 19.0633ZM40 19.0633C40 20.6025 40.2728 22.0405 40.8185 23.3772C41.3851 24.7139 42.1722 25.8785 43.1795 26.8709C44.1872 27.843 45.3727 28.6127 46.7371 29.1797C48.1008 29.7266 49.5804 30 51.1759 30C52.7914 30 54.271 29.7266 55.6147 29.1797C56.9783 28.6127 58.1646 27.843 59.172 26.8709C60.1793 25.8785 60.9556 24.7139 61.5015 23.3772C62.0682 22.0405 62.3515 20.6025 62.3515 19.0633C62.3515 17.5038 62.0682 16.0658 61.5015 14.7494C60.9556 13.4127 60.1793 12.2582 59.172 11.2861C58.1646 10.2937 56.9783 9.52405 55.6147 8.97721C54.271 8.41015 52.7914 8.12658 51.1759 8.12658C49.5804 8.12658 48.1008 8.41015 46.7371 8.97721C45.3727 9.52405 44.1872 10.2937 43.1795 11.2861C42.1722 12.2582 41.3851 13.4127 40.8185 14.7494C40.2728 16.0658 40 17.5038 40 19.0633ZM50.6722 20.5823L60.1164 29.6962H63.5792L54.1351 20.5823H50.6722ZM68.491 24.2278V15.7215H65.9725V24.5316C65.9725 26.1924 66.424 27.519 67.3262 28.5114C68.2291 29.5038 69.4354 30 70.9465 30C71.9124 30 72.7516 29.7975 73.4649 29.3924C74.179 28.9671 74.7771 28.3393 75.2593 27.5089V29.6962H77.7777V15.7215H75.2593V24.2278C75.2593 24.9164 75.1019 25.524 74.7871 26.0506C74.4938 26.5772 74.063 26.9924 73.4964 27.2962C72.9512 27.5798 72.3109 27.7215 71.5761 27.7215C70.5687 27.7215 69.8032 27.4177 69.278 26.8101C68.7536 26.2025 68.491 25.3417 68.491 24.2278ZM82.5121 9.94937C82.5121 10.3949 82.6802 10.7898 83.0158 11.1342C83.3728 11.4582 83.7821 11.6203 84.2435 11.6203C84.7265 11.6203 85.1357 11.4582 85.4713 11.1342C85.8076 10.7898 85.975 10.3949 85.975 9.94937C85.975 9.48352 85.8076 9.08858 85.4713 8.76456C85.1357 8.44053 84.7265 8.27848 84.2435 8.27848C83.7821 8.27848 83.3728 8.44053 83.0158 8.76456C82.6802 9.08858 82.5121 9.48352 82.5121 9.94937ZM82.9843 15.7215V29.6962H85.5027V15.7215H82.9843ZM90.6901 6V29.6962H93.2086V6H90.6901ZM97.9452 6V29.6962H100.464V6H97.9452ZM106.176 23.2557L104.036 24.6532C104.519 25.5848 105.137 26.4658 105.893 27.2962C106.669 28.1063 107.561 28.7646 108.569 29.2709C109.597 29.757 110.709 30 111.906 30C112.787 30 113.626 29.8583 114.424 29.5747C115.243 29.2911 115.967 28.8861 116.596 28.3595C117.247 27.8329 117.75 27.1949 118.107 26.4456C118.485 25.6962 118.674 24.8557 118.674 23.924C118.674 22.9519 118.496 22.1215 118.139 21.4329C117.782 20.724 117.32 20.1266 116.754 19.6405C116.208 19.1342 115.61 18.719 114.959 18.3949C114.309 18.0709 113.689 17.8076 113.102 17.6051C111.822 17.1797 110.804 16.7544 110.048 16.3291C109.314 15.8836 108.789 15.4177 108.474 14.9316C108.16 14.4253 108.002 13.8785 108.002 13.2911C108.002 12.6026 108.275 11.9848 108.821 11.438C109.367 10.8709 110.237 10.5873 111.434 10.5873C112.294 10.5873 113.018 10.7494 113.606 11.0734C114.215 11.3974 114.728 11.8127 115.148 12.319C115.568 12.8253 115.914 13.3417 116.187 13.8684L118.485 12.5924C118.128 11.8431 117.635 11.1342 117.006 10.4658C116.376 9.77724 115.61 9.22025 114.707 8.79494C113.826 8.34939 112.787 8.12658 111.591 8.12658C110.352 8.12658 109.251 8.36962 108.285 8.8557C107.32 9.32154 106.565 9.9696 106.019 10.8C105.473 11.6304 105.2 12.5722 105.2 13.6253C105.2 14.5975 105.389 15.4177 105.767 16.0861C106.165 16.7544 106.669 17.3215 107.278 17.7873C107.887 18.2329 108.527 18.6076 109.198 18.9114C109.87 19.195 110.478 19.4278 111.024 19.6101C111.863 19.8937 112.65 20.2177 113.385 20.5823C114.141 20.9266 114.75 21.3823 115.211 21.9494C115.673 22.5164 115.904 23.2759 115.904 24.2278C115.904 25.2 115.547 26 114.833 26.6278C114.12 27.2557 113.176 27.5696 112 27.5696C111.119 27.5696 110.332 27.3873 109.639 27.0228C108.947 26.6582 108.317 26.1519 107.75 25.5038C107.204 24.8557 106.68 24.1063 106.176 23.2557ZM124.966 6H122.447V29.6962H124.966V6ZM131.734 21.1899V29.6962H134.252V20.8861C134.252 19.6709 134.043 18.6582 133.623 17.8481C133.224 17.038 132.647 16.4304 131.891 16.0253C131.156 15.6202 130.286 15.4177 129.278 15.4177C128.271 15.4177 127.379 15.6709 126.603 16.1772C125.847 16.6835 125.249 17.3722 124.808 18.243C124.367 19.0937 124.147 20.076 124.147 21.1899H124.966C124.966 20.5215 125.112 19.9241 125.406 19.3975C125.721 18.8709 126.151 18.4557 126.697 18.1519C127.264 17.8481 127.914 17.6962 128.649 17.6962C129.677 17.6962 130.443 17.9898 130.947 18.5772C131.471 19.1646 131.734 20.0354 131.734 21.1899ZM138.987 9.94937C138.987 10.3949 139.155 10.7898 139.49 11.1342C139.847 11.4582 140.257 11.6203 140.718 11.6203C141.201 11.6203 141.61 11.4582 141.946 11.1342C142.281 10.7898 142.45 10.3949 142.45 9.94937C142.45 9.48352 142.281 9.08858 141.946 8.76456C141.61 8.44053 141.201 8.27848 140.718 8.27848C140.257 8.27848 139.847 8.44053 139.49 8.76456C139.155 9.08858 138.987 9.48352 138.987 9.94937ZM139.459 15.7215V29.6962H141.977V15.7215H139.459ZM152.767 30C154.321 30 155.664 29.7064 156.797 29.119C157.952 28.5114 158.906 27.6202 159.662 26.4456L157.615 25.2C157.091 26.0506 156.451 26.6886 155.695 27.1139C154.94 27.519 154.069 27.7215 153.082 27.7215C152.096 27.7215 151.256 27.519 150.564 27.1139C149.871 26.7088 149.347 26.1215 148.99 25.3519C148.634 24.5823 148.455 23.6506 148.455 22.557C148.476 21.4835 148.665 20.5823 149.021 19.8532C149.399 19.1038 149.924 18.5367 150.595 18.1519C151.288 17.7468 152.117 17.5443 153.082 17.5443C153.901 17.5443 154.615 17.7164 155.223 18.0608C155.832 18.4051 156.304 18.881 156.64 19.4886C156.997 20.0962 157.175 20.8152 157.175 21.6456C157.175 21.7873 157.143 21.9696 157.08 22.1924C157.017 22.3949 156.954 22.5468 156.891 22.6481L157.899 21.2506H147.51V23.3165H159.882C159.882 23.2759 159.882 23.1848 159.882 23.043C159.904 22.881 159.914 22.7291 159.914 22.5873C159.914 21.1089 159.641 19.8329 159.095 18.7595C158.55 17.6861 157.763 16.8658 156.734 16.2987C155.727 15.7114 154.51 15.4177 153.082 15.4177C151.656 15.4177 150.396 15.7215 149.305 16.3291C148.234 16.9367 147.395 17.7873 146.786 18.881C146.199 19.9747 145.905 21.2506 145.905 22.7089C145.905 24.1469 146.188 25.4127 146.755 26.5063C147.343 27.6 148.151 28.4608 149.179 29.0886C150.228 29.6962 151.425 30 152.767 30ZM163.366 6V29.6962H165.884V6H163.366ZM181.482 6V29.6962H184V6H181.482ZM169.362 22.7089C169.362 24.2076 169.687 25.5038 170.337 26.5975C170.988 27.6911 171.859 28.5316 172.95 29.119C174.041 29.7064 175.238 30 176.539 30C177.756 30 178.816 29.7064 179.719 29.119C180.621 28.5316 181.324 27.6911 181.828 26.5975C182.352 25.5038 182.615 24.2076 182.615 22.7089C182.615 21.1899 182.352 19.8937 181.828 18.8203C181.324 17.7266 180.621 16.8861 179.719 16.2987C178.816 15.7114 177.756 15.4177 176.539 15.4177C175.238 15.4177 174.041 15.7114 172.95 16.2987C171.859 16.8861 170.988 17.7266 170.337 18.8203C169.687 19.8937 169.362 21.1899 169.362 22.7089ZM171.911 22.7089C171.911 21.6354 172.132 20.724 172.573 19.9747C173.034 19.2253 173.643 18.6582 174.398 18.2734C175.154 17.8886 175.972 17.6962 176.854 17.6962C177.589 17.6962 178.313 17.8886 179.026 18.2734C179.739 18.6582 180.328 19.2253 180.789 19.9747C181.25 20.724 181.482 21.6354 181.482 22.7089C181.482 23.7823 181.25 24.6937 180.789 25.443C180.328 26.1924 179.739 26.7595 179.026 27.1443C178.313 27.5291 177.589 27.7215 176.854 27.7215C175.972 27.7215 175.154 27.5291 174.398 27.1443C173.643 26.7595 173.034 26.1924 172.573 25.443C172.132 24.6937 171.911 23.7823 171.911 22.7089Z" fill="white"/>
<path d="M14.8508 33.9546L14.8526 33.9993C14.8394 33.9906 14.8253 33.983 14.8106 33.9768C14.796 33.9836 14.782 33.9913 14.7687 34L14.7669 33.9553C9.27631 31.1541 5.78955 27.6576 3.59941 24.0753C2.94594 23.0096 2.38295 21.8989 1.91547 20.753C-0.570963 14.6955 0.0062607 8.91177 0.191778 6.31589C6.6444 5.3336 12.7098 1.18972 14.1868 0.123745C14.256 0.077588 14.3131 0.0352943 14.3583 0C14.4058 0.0339908 14.4658 0.0734967 14.5348 0.119056C15.8732 1.0307 17.2722 1.86422 18.7235 2.61476C20.0016 3.28442 21.3225 3.88211 22.679 4.4046C24.6002 5.16788 26.6192 5.70215 28.687 5.99457C29.1399 10.5866 31.0902 25.1796 14.8508 33.9546Z" fill="#2D83EE"/>
<path d="M23.0128 10.4257C19.1431 9.92628 15.4541 7.53527 14.5551 6.91538L14.45 6.84375C14.4224 6.86401 14.3894 6.8897 14.3478 6.91736C13.465 7.55553 9.84108 10.0309 5.98594 10.6176C5.78913 13.3656 4.85594 22.1105 14.6936 27.1311L14.6938 27.1587C14.7018 27.1536 14.7104 27.1493 14.7194 27.1459C14.7284 27.1491 14.737 27.1531 14.745 27.158V27.1296C24.4461 21.8893 23.2807 13.1697 23.0128 10.4257Z" fill="#0065E2"/>
<path d="M26.6498 7.58503C21.1096 6.87011 15.828 3.44389 14.5399 2.55942C14.4822 2.52221 14.432 2.48543 14.3916 2.45703C14.3515 2.48641 14.3023 2.52251 14.2457 2.56273C12.9793 3.47581 7.79185 7.02081 2.27232 7.86019C1.98919 11.7988 0.654969 24.3155 14.7399 31.5048L14.7404 31.5439C14.7518 31.5366 14.7642 31.5305 14.7771 31.5258C14.7902 31.5303 14.8026 31.5362 14.8141 31.5436L14.8137 31.5041C28.7035 23.9993 27.0371 11.5146 26.6498 7.58503Z" stroke="#0067E8" stroke-width="0.61869" stroke-miterlimit="10"/>
<path fill-rule="evenodd" clip-rule="evenodd" d="M9.99316 20.8859C10.1178 20.5288 10.2674 20.1795 10.4409 19.8403C11.1507 18.5577 12.0386 17.3658 13.0821 16.2946C14.4123 14.9044 15.9417 13.6876 17.628 12.6778C18.3563 12.2222 19.1477 11.859 19.9809 11.5979C20.0216 11.5606 20.1027 11.5607 20.1839 11.5234L19.6961 12.0815C19.1374 12.671 18.6222 13.2943 18.1538 13.9472C18.1131 14.022 18.0726 14.0219 17.9914 14.0218C17.6479 14.1102 17.294 14.1598 16.9374 14.1696C17.072 14.3034 17.2382 14.4067 17.4231 14.4714C17.5042 14.5089 17.6664 14.5092 17.7063 14.6214C17.7062 14.6962 17.5843 14.8082 17.5435 14.8825C17.5069 14.9692 17.4465 15.0457 17.3683 15.1045C17.2901 15.1633 17.1967 15.2024 17.0972 15.2179C16.7675 15.3064 16.4269 15.3561 16.0838 15.3659C16.0836 15.4407 16.1242 15.4407 16.1647 15.4782C16.3708 15.6271 16.6034 15.7416 16.8521 15.8168C16.9332 15.8543 16.9331 15.8917 16.8925 15.9665C16.8544 16.049 16.7928 16.1206 16.7143 16.1734C16.6356 16.2263 16.543 16.2585 16.4461 16.2667C15.9326 16.4196 15.4023 16.5197 14.865 16.565L14.8244 16.5649C14.9356 16.6636 15.0576 16.7514 15.1885 16.8269C15.4355 16.9368 15.6932 17.0247 15.9582 17.0895C15.9988 17.0896 16.0393 17.127 15.9986 17.1644C15.8127 17.4344 15.5793 17.674 15.3081 17.8734C15.2077 17.9503 15.0907 18.0067 14.9648 18.0387C14.8389 18.0707 14.7071 18.0777 14.5781 18.0592L13.6456 18.0577C13.4017 18.0511 13.1577 18.0632 12.9159 18.0938C12.7232 18.1193 12.5486 18.2127 12.4291 18.3544C12.0562 18.7901 11.7421 19.2659 11.4938 19.7715L11.3717 19.9957C11.3359 20.1254 11.2649 20.2447 11.1655 20.3422C11.0661 20.4398 10.9414 20.5126 10.8032 20.5536C10.5157 20.6239 10.2423 20.7361 9.99316 20.8859Z" fill="white"/>
</svg>
