<svg width="136" height="16" viewBox="0 0 136 16" fill="none" xmlns="http://www.w3.org/2000/svg">
<path d="M13.6693 14.1932L11.3397 10.9681L9.56481 8.50848L7.58036 9.98926L9.81133 13.0763C9.19504 13.3273 8.51712 13.4779 7.81455 13.4779C4.85636 13.4779 2.45283 11.0308 2.45283 8.03162C2.45283 5.01985 4.85636 2.57279 7.81455 2.57279C10.7727 2.57279 13.1639 5.01985 13.1639 8.03162C13.1639 9.12338 12.8435 10.1524 12.3011 11.0057L13.8295 13.114C14.9635 11.7336 15.6414 9.96416 15.6414 8.03162C15.6414 3.63946 12.1286 0.0629883 7.82688 0.0629883C3.51285 0.0629883 0 3.63946 0 8.03162C0 12.4238 3.51285 15.9877 7.82688 15.9877C9.08411 15.9877 10.2674 15.6865 11.3274 15.1469L11.9314 15.9877H14.9758L13.6693 14.1932Z" fill="white"/>
<path d="M27.2524 6.21154V15.9872H24.7873V15.0837C23.9368 15.6484 22.9138 15.9872 21.8168 15.9872C18.8216 15.9872 16.3811 13.5025 16.3811 10.4531V5.25781L18.8463 6.34958V10.4531C18.8463 12.1221 20.1774 13.4774 21.8168 13.4774C23.4561 13.4774 24.7873 12.1221 24.7873 10.4531V5.13232L27.2524 6.21154Z" fill="white"/>
<path d="M30.4692 1.12965V3.41358L28.004 2.32181V0.0629883L30.4692 1.12965Z" fill="white"/>
<path d="M28.004 3.1626L30.4692 4.25436V15.9877H28.004V3.1626Z" fill="white"/>
<path d="M33.686 1.15475V15.9877H31.2208V0.0629883L33.686 1.15475Z" fill="white"/>
<path d="M36.9029 1.15475V15.9877H34.4377V0.0629883L36.9029 1.15475Z" fill="white"/>
<path d="M55.9342 15.9809V1.14792L53.469 0.0561523V15.9809H55.9342Z" fill="white"/>
<path d="M76.4074 1.15378V14.0918L73.9423 9.52397V0.0620117L76.4074 1.15378Z" fill="white"/>
<path d="M76.4075 15.9867V15.673L73.9423 11.1051L68.8888 1.74358L65.1047 0.0620117V15.9867H67.5699V4.49182L73.7698 15.9867H76.4075Z" fill="white"/>
<path d="M52.7174 15.9871H50.1043L45.285 3.41294L42.7089 9.98863L46.345 8.24432L47.2447 10.5784L41.353 13.3894L40.33 15.9871H37.6676L43.9168 0.0498047L47.1708 1.51804L52.7174 15.9871Z" fill="white"/>
<path d="M93.9227 13.4776L94.8965 15.9874H93.9227C90.4222 15.9874 88.8568 13.7412 88.8568 11.5075V0L91.322 1.10431V5.0447H93.8118L94.7732 7.55451H91.3096V11.4949C91.322 12.7749 92.2464 13.4776 93.9227 13.4776Z" fill="white"/>
<path d="M94.6128 5.05664L98.6803 15.9994H101.306L97.7682 6.43703L94.6128 5.05664Z" fill="white"/>
<path d="M104.72 15.9994L108.405 6.04801L106.15 5.05664L103.401 12.448L101.183 6.46213L98.0394 5.06919L102.095 15.9994H104.72Z" fill="white"/>
<path d="M113.299 15.9872C110.34 15.9872 107.925 13.5401 107.925 10.5158C107.925 7.49149 110.328 5.04443 113.299 5.04443C116.257 5.04443 118.673 7.49149 118.673 10.5158C118.673 13.5401 116.257 15.9872 113.299 15.9872ZM113.299 7.55424C111.696 7.55424 110.39 8.88443 110.39 10.5158C110.39 12.1472 111.696 13.4774 113.299 13.4774C114.901 13.4774 116.208 12.1472 116.208 10.5158C116.208 8.88443 114.901 7.55424 113.299 7.55424Z" fill="white"/>
<path d="M125.304 5.03234V7.52959L124.33 7.54214C123.319 7.54214 121.89 8.11895 121.89 9.67548V15.9751L119.437 15.9751L119.424 15.9751V4.07861L121.89 5.15783V5.76018C122.511 5.06972 123.206 5.03234 125.304 5.03234Z" fill="white"/>
<path fill-rule="evenodd" clip-rule="evenodd" d="M132.943 15.9751H136L132.847 11.5952L131.319 13.7285L132.943 15.9751Z" fill="white"/>
<path d="M135.842 6.09872L133.525 5.06971L128.521 12.1097V1.16696L126.055 0.0751953V15.9874H128.791L135.842 6.09872Z" fill="white"/>
<path d="M88.1049 10.4155C88.1049 7.341 85.652 4.84375 82.6322 4.84375C79.6124 4.84375 77.1595 7.341 77.1595 10.4155C77.1595 13.49 79.6124 15.9873 82.6322 15.9873H87.9693L87.0079 13.4775H82.6199C81.3996 13.4775 80.3519 12.7371 79.8835 11.6704H87.9569C88.0555 11.2688 88.1049 10.8422 88.1049 10.4155ZM79.8959 9.16061C80.3642 8.09395 81.4119 7.35355 82.6322 7.35355C83.8525 7.35355 84.9001 8.09395 85.3685 9.16061H79.8959Z" fill="white"/>
</svg>
