<svg width="243" height="80" viewBox="0 0 243 80" fill="none" xmlns="http://www.w3.org/2000/svg">
<path d="M82.226 66.1652H83.216V74.3184H82.226V66.1652ZM82.7734 67.097V66.1652H84.439C84.967 66.1652 85.4367 66.2662 85.8483 66.4681C86.2676 66.6622 86.5976 66.9417 86.8383 67.3067C87.0868 67.6716 87.211 68.1065 87.211 68.6112C87.211 69.1081 87.0868 69.543 86.8383 69.9157C86.5976 70.2806 86.2676 70.564 85.8483 70.7659C85.4367 70.9601 84.967 71.0571 84.439 71.0571H82.7734V70.1253H84.439C84.967 70.1253 85.394 69.9972 85.7202 69.741C86.054 69.4847 86.221 69.1081 86.221 68.6112C86.221 68.1065 86.054 67.7299 85.7202 67.4814C85.394 67.2252 84.967 67.097 84.439 67.097H82.7734ZM87.7302 71.6395C87.7302 71.0959 87.8506 70.6145 88.0913 70.1952C88.3398 69.7759 88.6737 69.4459 89.093 69.2052C89.5123 68.9645 89.982 68.8441 90.5023 68.8441C91.0303 68.8441 91.5001 68.9645 91.9116 69.2052C92.3309 69.4459 92.6609 69.7759 92.9016 70.1952C93.1501 70.6145 93.2743 71.0959 93.2743 71.6395C93.2743 72.1753 93.1501 72.6567 92.9016 73.0837C92.6609 73.503 92.3309 73.8331 91.9116 74.0738C91.5001 74.3145 91.0303 74.4348 90.5023 74.4348C89.982 74.4348 89.5123 74.3145 89.093 74.0738C88.6737 73.8331 88.3398 73.503 88.0913 73.0837C87.8506 72.6567 87.7302 72.1753 87.7302 71.6395ZM88.6737 71.6395C88.6737 72.0122 88.7513 72.3422 88.9066 72.6295C89.0697 72.9168 89.2871 73.1459 89.5589 73.3167C89.8384 73.4798 90.1529 73.5613 90.5023 73.5613C90.8517 73.5613 91.1623 73.4798 91.4341 73.3167C91.7136 73.1459 91.931 72.9168 92.0863 72.6295C92.2494 72.3422 92.3309 72.0122 92.3309 71.6395C92.3309 71.2668 92.2494 70.9368 92.0863 70.6495C91.931 70.3544 91.7136 70.1253 91.4341 69.9623C91.1623 69.7992 90.8517 69.7177 90.5023 69.7177C90.1529 69.7177 89.8384 69.7992 89.5589 69.9623C89.2871 70.1253 89.0697 70.3544 88.9066 70.6495C88.7513 70.9368 88.6737 71.2668 88.6737 71.6395ZM93.5684 68.9606H94.6167L95.9561 72.4431L97.412 68.5529L98.9728 72.4664L100.324 68.9606H101.372L99.0427 74.726L97.4237 70.8242L95.8979 74.726L93.5684 68.9606ZM104.203 74.4348C103.706 74.4348 103.263 74.3184 102.875 74.0854C102.495 73.8447 102.196 73.5147 101.978 73.0954C101.769 72.6761 101.664 72.1908 101.664 71.6395C101.664 71.0804 101.772 70.5912 101.99 70.1719C102.215 69.7526 102.526 69.4265 102.922 69.1935C103.325 68.9606 103.791 68.8441 104.319 68.8441C104.847 68.8441 105.298 68.9567 105.67 69.1819C106.051 69.3993 106.342 69.7138 106.544 70.1253C106.746 70.5369 106.847 71.0261 106.847 71.5929C106.847 71.6472 106.843 71.7055 106.835 71.7676C106.835 71.822 106.835 71.8569 106.835 71.8724H102.258V71.0804H106.101L105.729 71.6162C105.752 71.5774 105.775 71.5191 105.799 71.4415C105.822 71.3561 105.834 71.2862 105.834 71.2318C105.834 70.9135 105.767 70.6378 105.635 70.4049C105.511 70.1719 105.337 69.9894 105.111 69.8574C104.886 69.7254 104.622 69.6594 104.319 69.6594C103.962 69.6594 103.655 69.7371 103.399 69.8924C103.151 70.0399 102.957 70.2573 102.817 70.5446C102.685 70.8242 102.615 71.1697 102.607 71.5812C102.607 72.0005 102.673 72.3577 102.805 72.6528C102.937 72.9479 103.131 73.173 103.388 73.3283C103.644 73.4836 103.954 73.5613 104.319 73.5613C104.684 73.5613 105.007 73.4836 105.286 73.3283C105.566 73.1653 105.802 72.9207 105.997 72.5946L106.754 73.0721C106.474 73.5225 106.121 73.8641 105.694 74.0971C105.274 74.3222 104.777 74.4348 104.203 74.4348ZM109.056 68.9606V74.3184H108.124V68.9606H109.056ZM110.675 69.9856C110.55 69.8924 110.438 69.8264 110.337 69.7876C110.236 69.741 110.108 69.7177 109.953 69.7177C109.72 69.7177 109.537 69.7759 109.405 69.8924C109.273 70.0089 109.18 70.168 109.126 70.3699C109.079 70.5718 109.056 70.8009 109.056 71.0571H108.636C108.636 70.63 108.71 70.2535 108.858 69.9273C109.013 69.5934 109.211 69.3294 109.452 69.1353C109.692 68.9412 109.937 68.8441 110.185 68.8441C110.38 68.8441 110.558 68.8713 110.721 68.9257C110.892 68.9722 111.047 69.0693 111.187 69.2168L110.675 69.9856ZM114.019 74.4348C113.522 74.4348 113.079 74.3184 112.691 74.0854C112.311 73.8447 112.012 73.5147 111.794 73.0954C111.585 72.6761 111.48 72.1908 111.48 71.6395C111.48 71.0804 111.589 70.5912 111.806 70.1719C112.031 69.7526 112.342 69.4265 112.738 69.1935C113.141 68.9606 113.607 68.8441 114.135 68.8441C114.663 68.8441 115.114 68.9567 115.486 69.1819C115.867 69.3993 116.158 69.7138 116.36 70.1253C116.562 70.5369 116.663 71.0261 116.663 71.5929C116.663 71.6472 116.659 71.7055 116.651 71.7676C116.651 71.822 116.651 71.8569 116.651 71.8724H112.074V71.0804H115.917L115.545 71.6162C115.568 71.5774 115.591 71.5191 115.615 71.4415C115.638 71.3561 115.65 71.2862 115.65 71.2318C115.65 70.9135 115.584 70.6378 115.452 70.4049C115.327 70.1719 115.153 69.9894 114.927 69.8574C114.702 69.7254 114.438 69.6594 114.135 69.6594C113.778 69.6594 113.471 69.7371 113.215 69.8924C112.967 70.0399 112.773 70.2573 112.633 70.5446C112.501 70.8242 112.431 71.1697 112.423 71.5812C112.423 72.0005 112.489 72.3577 112.621 72.6528C112.753 72.9479 112.947 73.173 113.204 73.3283C113.46 73.4836 113.77 73.5613 114.135 73.5613C114.5 73.5613 114.823 73.4836 115.102 73.3283C115.382 73.1653 115.618 72.9207 115.813 72.5946L116.57 73.0721C116.29 73.5225 115.937 73.8641 115.51 74.0971C115.09 74.3222 114.594 74.4348 114.019 74.4348ZM121.958 65.2335H122.89V74.3184H121.958V65.2335ZM117.474 71.6395C117.474 71.0571 117.594 70.5602 117.835 70.1486C118.076 69.7293 118.398 69.4071 118.802 69.1819C119.206 68.9567 119.648 68.8441 120.13 68.8441C120.58 68.8441 120.972 68.9567 121.306 69.1819C121.64 69.4071 121.9 69.7293 122.086 70.1486C122.281 70.5602 122.378 71.0571 122.378 71.6395C122.378 72.2141 122.281 72.711 122.086 73.1303C121.9 73.5496 121.64 73.8719 121.306 74.0971C120.972 74.3222 120.58 74.4348 120.13 74.4348C119.648 74.4348 119.206 74.3222 118.802 74.0971C118.398 73.8719 118.076 73.5496 117.835 73.1303C117.594 72.711 117.474 72.2141 117.474 71.6395ZM118.418 71.6395C118.418 72.051 118.499 72.4004 118.662 72.6877C118.833 72.975 119.058 73.1925 119.338 73.34C119.617 73.4875 119.92 73.5613 120.246 73.5613C120.518 73.5613 120.786 73.4875 121.05 73.34C121.314 73.1925 121.531 72.975 121.702 72.6877C121.873 72.4004 121.958 72.051 121.958 71.6395C121.958 71.2279 121.873 70.8785 121.702 70.5912C121.531 70.3039 121.314 70.0865 121.05 69.939C120.786 69.7914 120.518 69.7177 120.246 69.7177C119.92 69.7177 119.617 69.7914 119.338 69.939C119.058 70.0865 118.833 70.3039 118.662 70.5912C118.499 70.8785 118.418 71.2279 118.418 71.6395ZM128.948 65.2335V74.3184H128.016V65.2335H128.948ZM133.432 71.6395C133.432 72.2141 133.312 72.711 133.071 73.1303C132.83 73.5496 132.508 73.8719 132.104 74.0971C131.708 74.3222 131.266 74.4348 130.777 74.4348C130.334 74.4348 129.942 74.3222 129.6 74.0971C129.266 73.8719 129.002 73.5496 128.808 73.1303C128.622 72.711 128.529 72.2141 128.529 71.6395C128.529 71.0571 128.622 70.5602 128.808 70.1486C129.002 69.7293 129.266 69.4071 129.6 69.1819C129.942 68.9567 130.334 68.8441 130.777 68.8441C131.266 68.8441 131.708 68.9567 132.104 69.1819C132.508 69.4071 132.83 69.7293 133.071 70.1486C133.312 70.5602 133.432 71.0571 133.432 71.6395ZM132.489 71.6395C132.489 71.2279 132.403 70.8785 132.233 70.5912C132.07 70.3039 131.848 70.0865 131.569 69.939C131.297 69.7914 130.994 69.7177 130.66 69.7177C130.388 69.7177 130.121 69.7914 129.857 69.939C129.593 70.0865 129.375 70.3039 129.204 70.5912C129.033 70.8785 128.948 71.2279 128.948 71.6395C128.948 72.051 129.033 72.4004 129.204 72.6877C129.375 72.975 129.593 73.1925 129.857 73.34C130.121 73.4875 130.388 73.5613 130.66 73.5613C130.994 73.5613 131.297 73.4875 131.569 73.34C131.848 73.1925 132.07 72.975 132.233 72.6877C132.403 72.4004 132.489 72.051 132.489 71.6395ZM138.798 68.9606L135.304 76.8808H134.255L135.723 73.5613L133.673 68.9606H134.779L136.48 73.1536L136.096 73.107L137.749 68.9606H138.798Z" fill="white"/>
<path d="M177.848 69.498C177.848 70.2453 178.01 70.9122 178.333 71.4986C178.665 72.0851 179.116 72.5486 179.686 72.8891C180.256 73.2296 180.902 73.3999 181.624 73.3999C182.355 73.3999 183.001 73.2296 183.561 72.8891C184.131 72.5486 184.577 72.0851 184.9 71.4986C185.232 70.9122 185.399 70.2453 185.399 69.498C185.399 68.7508 185.232 68.0839 184.9 67.4975C184.577 66.911 184.131 66.4475 183.561 66.107C183.001 65.7665 182.355 65.5962 181.624 65.5962C180.902 65.5962 180.256 65.7665 179.686 66.107C179.116 66.4475 178.665 66.911 178.333 67.4975C178.01 68.0839 177.848 68.7508 177.848 69.498ZM176.566 69.498C176.566 68.7697 176.69 68.0981 176.937 67.4833C177.193 66.859 177.549 66.3198 178.005 65.8658C178.461 65.4023 178.998 65.0428 179.615 64.7874C180.232 64.5226 180.902 64.3902 181.624 64.3902C182.355 64.3902 183.024 64.5226 183.632 64.7874C184.249 65.0428 184.786 65.4023 185.242 65.8658C185.698 66.3198 186.049 66.859 186.296 67.4833C186.552 68.0981 186.681 68.7697 186.681 69.498C186.681 70.2169 186.552 70.8885 186.296 71.5128C186.049 72.1371 185.698 72.681 185.242 73.1445C184.786 73.5985 184.249 73.958 183.632 74.2228C183.024 74.4782 182.355 74.6059 181.624 74.6059C180.902 74.6059 180.232 74.4782 179.615 74.2228C178.998 73.958 178.461 73.5985 178.005 73.1445C177.549 72.681 177.193 72.1371 176.937 71.5128C176.69 70.8885 176.566 70.2169 176.566 69.498ZM181.396 70.2075H182.963L187.236 74.464H185.669L181.396 70.2075ZM189.459 71.9101C189.459 72.4303 189.578 72.8323 189.815 73.1161C190.053 73.3999 190.399 73.5418 190.855 73.5418C191.188 73.5418 191.477 73.4756 191.724 73.3431C191.981 73.2013 192.175 73.0073 192.308 72.7614C192.451 72.5155 192.522 72.2317 192.522 71.9101V67.9373H193.662V74.464H192.522V73.4425C192.303 73.8303 192.033 74.1235 191.71 74.3221C191.387 74.5113 191.007 74.6059 190.57 74.6059C189.886 74.6059 189.34 74.3742 188.932 73.9107C188.524 73.4472 188.319 72.8276 188.319 72.052V67.9373H189.459V71.9101ZM195.804 65.2415C195.804 65.0239 195.88 64.8395 196.032 64.6881C196.193 64.5368 196.378 64.4611 196.587 64.4611C196.806 64.4611 196.991 64.5368 197.143 64.6881C197.295 64.8395 197.371 65.0239 197.371 65.2415C197.371 65.4496 197.295 65.634 197.143 65.7948C196.991 65.9462 196.806 66.0219 196.587 66.0219C196.378 66.0219 196.193 65.9462 196.032 65.7948C195.88 65.634 195.804 65.4496 195.804 65.2415ZM196.018 67.9373H197.157V74.464H196.018V67.9373ZM199.504 63.397H200.644V74.464H199.504V63.397ZM202.788 63.397H203.927V74.464H202.788V63.397ZM207.096 71.4844L207.524 70.3494H211.94L212.367 71.4844H207.096ZM209.703 66.7738L208.022 70.7183L207.908 70.9737L206.427 74.464H205.073L209.703 64.0355L214.333 74.464H212.98L211.527 71.0588L211.413 70.775L209.703 66.7738ZM216.336 71.9101C216.336 72.4303 216.455 72.8323 216.692 73.1161C216.93 73.3999 217.276 73.5418 217.732 73.5418C218.065 73.5418 218.354 73.4756 218.601 73.3431C218.858 73.2013 219.052 73.0073 219.185 72.7614C219.328 72.5155 219.399 72.2317 219.399 71.9101V67.9373H220.539V74.464H219.399V73.4425C219.181 73.8303 218.91 74.1235 218.587 74.3221C218.264 74.5113 217.884 74.6059 217.447 74.6059C216.764 74.6059 216.218 74.3742 215.809 73.9107C215.401 73.4472 215.197 72.8276 215.197 72.052V67.9373H216.336V71.9101ZM227.596 63.397H228.735V74.464H227.596V63.397ZM222.111 71.2007C222.111 70.4912 222.258 69.8859 222.553 69.3845C222.847 68.8737 223.241 68.4812 223.735 68.2069C224.229 67.9326 224.77 67.7954 225.359 67.7954C225.91 67.7954 226.39 67.9326 226.798 68.2069C227.206 68.4812 227.525 68.8737 227.752 69.3845C227.99 69.8859 228.109 70.4912 228.109 71.2007C228.109 71.9006 227.99 72.506 227.752 73.0168C227.525 73.5276 227.206 73.9201 226.798 74.1944C226.39 74.4688 225.91 74.6059 225.359 74.6059C224.77 74.6059 224.229 74.4688 223.735 74.1944C223.241 73.9201 222.847 73.5276 222.553 73.0168C222.258 72.506 222.111 71.9006 222.111 71.2007ZM223.265 71.2007C223.265 71.702 223.365 72.1277 223.564 72.4776C223.773 72.8276 224.049 73.0925 224.391 73.2722C224.732 73.4519 225.103 73.5418 225.502 73.5418C225.834 73.5418 226.162 73.4519 226.485 73.2722C226.808 73.0925 227.073 72.8276 227.282 72.4776C227.491 72.1277 227.596 71.702 227.596 71.2007C227.596 70.6993 227.491 70.2737 227.282 69.9237C227.073 69.5737 226.808 69.3089 226.485 69.1291C226.162 68.9494 225.834 68.8596 225.502 68.8596C225.103 68.8596 224.732 68.9494 224.391 69.1291C224.049 69.3089 223.773 69.5737 223.564 69.9237C223.365 70.2737 223.265 70.6993 223.265 71.2007ZM230.806 65.2415C230.806 65.0239 230.881 64.8395 231.033 64.6881C231.195 64.5368 231.38 64.4611 231.589 64.4611C231.807 64.4611 231.993 64.5368 232.145 64.6881C232.297 64.8395 232.373 65.0239 232.373 65.2415C232.373 65.4496 232.297 65.634 232.145 65.7948C231.993 65.9462 231.807 66.0219 231.589 66.0219C231.38 66.0219 231.195 65.9462 231.033 65.7948C230.881 65.634 230.806 65.4496 230.806 65.2415ZM231.019 67.9373H232.159V74.464H231.019V67.9373ZM233.509 67.9373H236.785V69.0014H233.509V67.9373ZM234.577 65.6671H235.717V74.464H234.577V65.6671ZM238.199 72.4634C238.332 72.6621 238.484 72.8465 238.655 73.0168C238.826 73.1871 239.02 73.3242 239.239 73.4283C239.467 73.5229 239.714 73.5702 239.98 73.5702C240.302 73.5702 240.554 73.4992 240.735 73.3573C240.925 73.206 241.02 73.0026 241.02 72.7472C241.02 72.5202 240.944 72.331 240.792 72.1797C240.649 72.0189 240.464 71.8864 240.236 71.7824C240.008 71.6689 239.766 71.5648 239.509 71.4702C239.225 71.3567 238.935 71.2243 238.64 71.073C238.356 70.9122 238.113 70.7088 237.914 70.4629C237.724 70.2075 237.629 69.8906 237.629 69.5122C237.629 69.1244 237.729 68.8028 237.928 68.5474C238.137 68.292 238.403 68.1028 238.726 67.9799C239.058 67.8569 239.4 67.7954 239.752 67.7954C240.103 67.7954 240.431 67.8522 240.735 67.9657C241.048 68.0792 241.323 68.2305 241.561 68.4197C241.798 68.6089 241.983 68.8265 242.116 69.0724L241.205 69.6541C241.024 69.4082 240.796 69.2048 240.521 69.044C240.255 68.8832 239.951 68.8028 239.609 68.8028C239.372 68.8028 239.168 68.8548 238.997 68.9589C238.826 69.0629 238.74 69.2237 238.74 69.4413C238.74 69.6116 238.807 69.7629 238.94 69.8953C239.073 70.0277 239.244 70.146 239.452 70.25C239.661 70.3541 239.88 70.4534 240.108 70.548C240.488 70.6993 240.834 70.8649 241.148 71.0446C241.461 71.2149 241.708 71.423 241.888 71.6689C242.078 71.9148 242.174 72.2317 242.174 72.6195C242.174 73.1871 241.964 73.66 241.547 74.0384C241.138 74.4167 240.597 74.6059 239.923 74.6059C239.486 74.6059 239.092 74.5302 238.74 74.3789C238.389 74.2181 238.09 74.0147 237.843 73.7688C237.605 73.5229 237.425 73.2722 237.301 73.0168L238.199 72.4634Z" fill="white"/>
<path opacity="0.98" d="M149.384 68.6724L158.778 59.6265L159.61 60.9012L150.722 69.7206V69.753L157.628 76.6636L157.115 78.0936L148.994 69.8112L149.384 68.6724Z" fill="white"/>
<path d="M170.738 70.9956L161.337 80.0092L160.506 78.7344L169.393 69.9474V69.915L162.52 62.972L163.033 61.542L171.154 69.8503L170.738 70.9956Z" fill="white"/>
<path fill-rule="evenodd" clip-rule="evenodd" d="M156.096 73.8297C156.193 73.5256 156.31 73.2279 156.447 72.9367C156.992 71.8238 157.726 70.8338 158.525 69.9086C159.578 68.7309 160.767 67.6762 162.105 66.822C162.677 66.4338 163.3 66.1232 163.957 65.8967C163.989 65.8644 164.054 65.8644 164.119 65.832L163.736 66.3109C163.32 66.822 162.872 67.3267 162.521 67.9026C162.488 67.9673 162.456 67.9673 162.391 67.9673C162.118 68.045 161.839 68.0838 161.559 68.0968C161.657 68.2262 161.813 68.2909 161.943 68.3491C162.008 68.3815 162.138 68.3815 162.164 68.4785C162.164 68.5432 162.066 68.6403 162.034 68.6985C161.975 68.8473 161.839 68.9574 161.683 68.9832C161.423 69.0609 161.157 69.0997 160.884 69.1126C160.884 69.1773 160.916 69.1773 160.949 69.2097C161.111 69.3391 161.293 69.4297 161.494 69.4944C161.559 69.5268 161.559 69.5591 161.527 69.6238C161.462 69.7856 161.332 69.8438 161.176 69.8762C160.773 70.0056 160.351 70.0897 159.929 70.1285H159.896C159.987 70.2126 160.078 70.2903 160.182 70.3485C160.377 70.4391 160.578 70.5167 160.793 70.5686C160.825 70.5686 160.858 70.6009 160.825 70.6332C160.663 70.8533 160.507 71.0797 160.28 71.2415C160.117 71.4033 159.929 71.4033 159.701 71.4033H158.967C158.772 71.3968 158.584 71.4097 158.389 71.4356C158.24 71.455 158.097 71.5391 158.006 71.6556C157.687 72.005 157.492 72.4515 157.272 72.8656L157.174 73.0597C157.109 73.312 156.953 73.4415 156.726 73.5385C156.544 73.5774 156.317 73.7003 156.096 73.8297Z" fill="white"/>
<path fill-rule="evenodd" clip-rule="evenodd" d="M25.5123 58.1039L25.5155 58.1804C25.4929 58.1655 25.4686 58.1526 25.4433 58.1419C25.4183 58.1535 25.3943 58.1667 25.3714 58.1816L25.3683 58.105C15.9359 53.3116 9.94595 47.3284 6.18347 41.1983C5.06087 39.3746 4.0937 37.4739 3.29061 35.5131C-0.776715 25.6428 -0.072009 16.1972 0.2798 11.4817L0.279802 11.4816C0.297459 11.245 0.314228 11.0202 0.329459 10.8079C11.4145 9.12698 21.8344 2.03588 24.3717 0.211756C24.4907 0.13277 24.5888 0.0603965 24.6663 0C24.744 0.0553736 24.8412 0.1193 24.9526 0.192575L24.9526 0.192622L24.9695 0.203731C27.2688 1.76376 29.6721 3.1901 32.1654 4.47444C34.3611 5.62039 36.6302 6.64317 38.9606 7.53726C42.2611 8.8434 45.7295 9.75766 49.2818 10.258C49.3026 10.468 49.3252 10.6901 49.349 10.9239C50.2165 19.4431 52.6651 43.4891 25.5123 58.1039ZM39.534 17.8406C32.8862 16.986 26.5487 12.8945 25.0044 11.8337L24.8237 11.7111L24.7881 11.7374C24.7485 11.7669 24.7027 11.801 24.6482 11.8371C23.1317 12.9291 16.906 17.1651 10.2832 18.169C10.2741 18.2954 10.2641 18.4293 10.2536 18.5702C9.87231 23.6715 8.79633 38.0669 25.2423 46.4274L25.2427 46.4745C25.2564 46.4658 25.2711 46.4584 25.2866 46.4527C25.3021 46.4581 25.3168 46.465 25.3305 46.4734V46.4248C41.539 37.7035 40.0899 23.3506 39.5749 18.2498L39.5746 18.2463C39.5602 18.1037 39.5465 17.9684 39.534 17.8406ZM24.8809 3.98089L24.7211 3.86909L24.5636 3.98389L24.5448 3.99753C24.4794 4.04523 24.4028 4.10106 24.3158 4.16266L24.3144 4.16368C22.1425 5.72355 13.2764 11.7548 3.86349 13.1806L3.64781 13.2133L3.6321 13.4309C3.61912 13.6108 3.60483 13.8013 3.58978 14.002C3.32319 17.5566 2.81731 24.3017 5.09653 31.6758C7.49832 39.4465 12.987 47.9002 25.0517 54.08L25.0564 54.4727L25.3872 54.2619L25.7278 54.4794L25.7239 54.0725C37.6207 47.6233 42.8825 39.0476 45.0765 31.2246C47.1583 23.8017 46.4731 17.0703 46.1121 13.5237C46.0917 13.323 46.0723 13.1326 46.0545 12.9528L46.0331 12.7366L45.8177 12.7089C36.3693 11.4944 27.3421 5.66526 25.1332 4.15442L25.1332 4.15432L25.1266 4.15005C25.0557 4.10454 24.9937 4.06063 24.9351 4.01915L24.8809 3.98089ZM44.5508 31.0772C42.3899 38.7825 37.2008 47.2557 25.383 53.6362C13.3978 47.5228 7.984 39.1689 5.61815 31.5146C3.3703 24.242 3.86878 17.587 4.13471 14.0367L4.1608 13.687C13.6301 12.1822 22.4684 6.16159 24.6323 4.60758C24.6654 4.58414 24.697 4.56151 24.727 4.5399C24.759 4.56183 24.793 4.5846 24.8281 4.60726C27.0339 6.11556 36.0297 11.9307 45.5327 13.222L45.5683 13.5728V13.5728C45.9285 17.1154 46.6038 23.7567 44.5508 31.0772Z" fill="white"/>
<path fill-rule="evenodd" clip-rule="evenodd" d="M17.168 35.7351C17.3821 35.124 17.6391 34.5264 17.9372 33.9458C19.1565 31.7511 20.6818 29.7115 22.4745 27.8784C24.7597 25.4994 27.387 23.4172 30.284 21.6892C31.5351 20.9096 32.8947 20.2881 34.3261 19.8413C34.3959 19.7775 34.5353 19.7777 34.6748 19.7139L33.8367 20.6688C32.877 21.6776 31.9919 22.7442 31.1873 23.8615C31.1173 23.9894 31.0477 23.9893 30.9083 23.9891C30.3181 24.1404 29.7101 24.2253 29.0976 24.2421C29.3287 24.4709 29.6142 24.6477 29.932 24.7584C30.0713 24.8226 30.35 24.8231 30.4185 25.0152C30.4182 25.1432 30.2088 25.3348 30.1389 25.462C30.0759 25.6104 29.9722 25.7412 29.8378 25.8418C29.7035 25.9424 29.543 26.0093 29.372 26.036C28.8056 26.1874 28.2206 26.2725 27.6311 26.2892C27.6308 26.4171 27.7005 26.4173 27.7701 26.4814C28.1241 26.7361 28.5238 26.9321 28.9511 27.0608C29.0904 27.125 29.0903 27.189 29.0204 27.3169C28.955 27.4581 28.8492 27.5806 28.7142 27.6711C28.5792 27.7615 28.42 27.8166 28.2536 27.8306C27.3715 28.0923 26.4605 28.2635 25.5373 28.3411L25.4676 28.3409C25.6587 28.5099 25.8683 28.6601 26.0931 28.7892C26.5174 28.9773 26.9602 29.1277 27.4155 29.2387C27.4851 29.2388 27.5547 29.3029 27.4849 29.3668C27.1654 29.8288 26.7645 30.2388 26.2986 30.5801C26.1261 30.7117 25.925 30.8082 25.7088 30.8629C25.4926 30.9178 25.2661 30.9297 25.0445 30.898L23.4426 30.8954C23.0236 30.8841 22.6043 30.9048 22.189 30.9573C21.8579 31.0009 21.558 31.1607 21.3526 31.4032C20.7121 32.1487 20.1726 32.963 19.746 33.8281L19.5362 34.2118C19.4746 34.4338 19.3527 34.6379 19.1819 34.8048C19.0111 34.9718 18.797 35.0963 18.5596 35.1665C18.0657 35.2869 17.596 35.4788 17.168 35.7351Z" fill="white"/>
<path d="M70.7285 30.8342C70.7285 28.8949 71.1614 27.1642 72.0275 25.6421C72.918 24.12 74.1281 22.9171 75.6559 22.0333C77.1837 21.1496 78.9145 20.7077 80.8503 20.7077C82.8103 20.7077 84.5421 21.1496 86.0447 22.0333C87.5725 22.9171 88.7686 24.12 89.6349 25.6421C90.5255 27.1642 90.9717 28.8949 90.9717 30.8342C90.9717 32.7736 90.5255 34.5043 89.6349 36.0264C88.7686 37.5485 87.5725 38.7514 86.0447 39.6351C84.5421 40.5189 82.8103 40.9608 80.8503 40.9608C78.9145 40.9608 77.1837 40.5189 75.6559 39.6351C74.1281 38.7514 72.918 37.5485 72.0275 36.0264C71.1614 34.5043 70.7285 32.7736 70.7285 30.8342ZM67.291 30.8342C67.291 32.6999 67.622 34.443 68.2841 36.0632C68.9716 37.6835 69.9264 39.0951 71.1486 40.298C72.3712 41.4763 73.8095 42.4092 75.4649 43.0966C77.1194 43.7594 78.9145 44.0908 80.8503 44.0908C82.8103 44.0908 84.6054 43.7594 86.2357 43.0966C87.8901 42.4092 89.3294 41.4763 90.5516 40.298C91.7738 39.0951 92.7156 37.6835 93.378 36.0632C94.0655 34.443 94.4092 32.6999 94.4092 30.8342C94.4092 28.9439 94.0655 27.201 93.378 25.6053C92.7156 23.985 91.7738 22.5857 90.5516 21.4073C89.3294 20.2045 87.8901 19.2716 86.2357 18.6087C84.6054 17.9214 82.8103 17.5777 80.8503 17.5777C78.9145 17.5777 77.1194 17.9214 75.4649 18.6087C73.8095 19.2716 72.3712 20.2045 71.1486 21.4073C69.9264 22.5857 68.9716 23.985 68.2841 25.6053C67.622 27.201 67.291 28.9439 67.291 30.8342ZM80.2392 32.6754L91.6974 43.7226H95.8988L84.4405 32.6754H80.2392ZM101.858 37.0943V26.7836H98.8025V37.4625C98.8025 39.4755 99.3502 41.0836 100.445 42.2864C101.54 43.4893 103.004 44.0908 104.837 44.0908C106.009 44.0908 107.027 43.8453 107.893 43.3543C108.759 42.8388 109.485 42.0778 110.07 41.0713V43.7226H113.125V26.7836H110.07V37.0943C110.07 37.9289 109.879 38.6654 109.497 39.3037C109.141 39.942 108.618 40.4453 107.931 40.8135C107.269 41.1572 106.493 41.329 105.601 41.329C104.379 41.329 103.45 40.9608 102.813 40.2243C102.177 39.4878 101.858 38.4445 101.858 37.0943ZM118.869 19.7871C118.869 20.3271 119.073 20.8059 119.48 21.2232C119.914 21.616 120.41 21.8124 120.97 21.8124C121.556 21.8124 122.052 21.616 122.46 21.2232C122.868 20.8059 123.071 20.3271 123.071 19.7871C123.071 19.2224 122.868 18.7437 122.46 18.351C122.052 17.9582 121.556 17.7618 120.97 17.7618C120.41 17.7618 119.914 17.9582 119.48 18.351C119.073 18.7437 118.869 19.2224 118.869 19.7871ZM119.442 26.7836V43.7226H122.498V26.7836H119.442ZM128.791 15V43.7226H131.847V15H128.791ZM137.594 15V43.7226H140.649V15H137.594ZM147.58 35.9159L144.983 37.6098C145.569 38.739 146.32 39.8069 147.236 40.8135C148.178 41.7954 149.261 42.5933 150.483 43.207C151.73 43.7962 153.08 44.0908 154.531 44.0908C155.601 44.0908 156.619 43.919 157.587 43.5753C158.58 43.2316 159.458 42.7406 160.222 42.1023C161.011 41.464 161.622 40.6907 162.056 39.7824C162.514 38.8741 162.743 37.8553 162.743 36.726C162.743 35.5477 162.527 34.5411 162.094 33.7065C161.661 32.8472 161.101 32.1231 160.413 31.5339C159.751 30.9202 159.025 30.4169 158.236 30.0241C157.447 29.6314 156.695 29.3122 155.983 29.0667C154.43 28.5512 153.195 28.0356 152.278 27.5201C151.386 26.98 150.75 26.4154 150.368 25.8262C149.986 25.2125 149.795 24.5497 149.795 23.8377C149.795 23.0031 150.126 22.2543 150.788 21.5915C151.451 20.9041 152.507 20.5604 153.958 20.5604C155.003 20.5604 155.881 20.7568 156.594 21.1496C157.333 21.5423 157.956 22.0457 158.465 22.6594C158.975 23.2731 159.395 23.8991 159.726 24.5374L162.514 22.9908C162.081 22.0825 161.483 21.2232 160.719 20.4131C159.955 19.5785 159.025 18.9033 157.931 18.3878C156.861 17.8477 155.601 17.5777 154.149 17.5777C152.647 17.5777 151.31 17.8723 150.139 18.4614C148.968 19.0261 148.051 19.8116 147.389 20.8182C146.727 21.8247 146.396 22.9662 146.396 24.2428C146.396 25.4211 146.625 26.4154 147.084 27.2255C147.567 28.0356 148.178 28.723 148.917 29.2876C149.656 29.8277 150.432 30.2819 151.247 30.6501C152.062 30.9938 152.8 31.2761 153.462 31.4971C154.48 31.8408 155.435 32.2335 156.326 32.6754C157.243 33.0928 157.982 33.6451 158.542 34.3325C159.102 35.0198 159.382 35.9404 159.382 37.0943C159.382 38.2726 158.949 39.2424 158.083 40.0034C157.218 40.7644 156.072 41.1449 154.646 41.1449C153.577 41.1449 152.622 40.924 151.781 40.4821C150.941 40.0402 150.177 39.4265 149.49 38.6409C148.827 37.8553 148.191 36.947 147.58 35.9159ZM170.376 15H167.321V43.7226H170.376V15ZM178.588 33.4119V43.7226H181.644V33.0437C181.644 31.5707 181.389 30.3432 180.88 29.3613C180.396 28.3793 179.696 27.6429 178.779 27.1519C177.888 26.6608 176.831 26.4154 175.609 26.4154C174.387 26.4154 173.304 26.7223 172.362 27.336C171.446 27.9497 170.72 28.7844 170.185 29.84C169.651 30.8711 169.383 32.0617 169.383 33.4119H170.376C170.376 32.6018 170.554 31.8776 170.911 31.2393C171.293 30.601 171.815 30.0978 172.477 29.7295C173.165 29.3613 173.954 29.1772 174.845 29.1772C176.092 29.1772 177.022 29.5331 177.633 30.2451C178.269 30.957 178.588 32.0126 178.588 33.4119ZM187.388 19.7871C187.388 20.3271 187.592 20.8059 187.999 21.2232C188.432 21.616 188.928 21.8124 189.488 21.8124C190.074 21.8124 190.571 21.616 190.978 21.2232C191.385 20.8059 191.589 20.3271 191.589 19.7871C191.589 19.2224 191.385 18.7437 190.978 18.351C190.571 17.9582 190.074 17.7618 189.488 17.7618C188.928 17.7618 188.432 17.9582 187.999 18.351C187.592 18.7437 187.388 19.2224 187.388 19.7871ZM187.961 26.7836V43.7226H191.016V26.7836H187.961ZM204.107 44.0908C205.992 44.0908 207.621 43.7349 208.996 43.0229C210.397 42.2864 211.555 41.2062 212.472 39.7824L209.989 38.2726C209.353 39.3037 208.576 40.077 207.659 40.5925C206.743 41.0836 205.686 41.329 204.489 41.329C203.293 41.329 202.274 41.0836 201.434 40.5925C200.593 40.1015 199.957 39.3897 199.524 38.4568C199.092 37.5239 198.875 36.3946 198.875 35.069C198.901 33.7678 199.13 32.6754 199.562 31.7917C200.021 30.8834 200.658 30.1959 201.472 29.7295C202.312 29.2385 203.318 28.993 204.489 28.993C205.482 28.993 206.349 29.2017 207.086 29.6191C207.825 30.0364 208.398 30.6133 208.805 31.3498C209.238 32.0862 209.454 32.9577 209.454 33.9643C209.454 34.1361 209.416 34.357 209.34 34.6271C209.264 34.8726 209.187 35.0567 209.111 35.1794L210.333 33.4856H197.729V35.9896H212.739C212.739 35.9404 212.739 35.83 212.739 35.6582C212.765 35.4617 212.777 35.2776 212.777 35.1058C212.777 33.3137 212.447 31.7671 211.784 30.466C211.123 29.1649 210.168 28.1706 208.92 27.4833C207.698 26.7713 206.221 26.4154 204.489 26.4154C202.758 26.4154 201.231 26.7836 199.906 27.5201C198.607 28.2566 197.589 29.2876 196.85 30.6133C196.138 31.9389 195.781 33.4855 195.781 35.2531C195.781 36.9961 196.125 38.5304 196.812 39.8561C197.526 41.1817 198.506 42.2251 199.753 42.9861C201.027 43.7226 202.478 44.0908 204.107 44.0908ZM216.966 15V43.7226H220.021V15H216.966ZM238.945 15V43.7226H242.001V15H238.945ZM224.24 35.2531C224.24 37.0698 224.635 38.6409 225.424 39.9665C226.213 41.2922 227.271 42.311 228.594 43.0229C229.918 43.7349 231.37 44.0908 232.949 44.0908C234.425 44.0908 235.712 43.7349 236.806 43.0229C237.901 42.311 238.754 41.2922 239.365 39.9665C240.001 38.6409 240.32 37.0698 240.32 35.2531C240.32 33.4119 240.001 31.8408 239.365 30.5396C238.754 29.214 237.901 28.1952 236.806 27.4833C235.712 26.7713 234.425 26.4154 232.949 26.4154C231.37 26.4154 229.918 26.7713 228.594 27.4833C227.271 28.1952 226.213 29.214 225.424 30.5396C224.635 31.8408 224.24 33.4119 224.24 35.2531ZM227.334 35.2531C227.334 33.952 227.601 32.8472 228.136 31.939C228.696 31.0307 229.435 30.3432 230.351 29.8768C231.268 29.4104 232.261 29.1772 233.33 29.1772C234.222 29.1772 235.1 29.4104 235.966 29.8768C236.831 30.3432 237.545 31.0307 238.105 31.939C238.665 32.8472 238.945 33.952 238.945 35.2531C238.945 36.5542 238.665 37.6589 238.105 38.5672C237.545 39.4755 236.831 40.163 235.966 40.6294C235.1 41.0958 234.222 41.329 233.33 41.329C232.261 41.329 231.268 41.0958 230.351 40.6294C229.435 40.163 228.696 39.4755 228.136 38.5672C227.601 37.6589 227.334 36.5542 227.334 35.2531Z" fill="white"/>
</svg>
