<svg width="160" height="32" viewBox="0 0 160 32" fill="none" xmlns="http://www.w3.org/2000/svg">
<g clip-path="url(#clip0_454_9783)">
<path d="M59.3552 17.1345C59.3552 19.4072 58.5126 21.301 56.8278 22.8161L58.6362 24.6385H56.5663L55.6294 23.6952C54.4239 24.4242 53.1309 24.7886 51.751 24.7886C49.79 24.7886 48.0252 24.0597 46.4564 22.6018C44.9022 21.1295 44.125 19.3071 44.125 17.1345C44.125 14.962 44.9022 13.1467 46.4564 11.6888C48.0252 10.2166 49.79 9.48047 51.751 9.48047C53.7556 9.48047 55.5204 10.2094 57.0457 11.6673C58.5855 13.1253 59.3552 14.9477 59.3552 17.1345ZM51.751 23.0949C52.7243 23.0949 53.6031 22.8805 54.3874 22.4517L51.1627 19.1928H53.2326L55.6076 21.5941C56.8278 20.4363 57.4378 18.9498 57.4378 17.1345C57.4378 15.3908 56.8785 13.9614 55.7601 12.8465C54.6561 11.7174 53.3198 11.1528 51.751 11.1528C50.2694 11.1528 48.9474 11.7174 47.7855 12.8465C46.6378 13.9757 46.0642 15.405 46.0642 17.1345C46.0642 18.8497 46.6378 20.2719 47.7855 21.4011C48.9474 22.5303 50.2694 23.0949 51.751 23.0949ZM71.0083 13.4897H72.7513V24.6385H71.0083V21.9371C70.8632 22.5517 70.4274 23.1806 69.7009 23.8238C68.9748 24.467 68.0596 24.7886 66.9556 24.7886C65.7354 24.7886 64.726 24.4027 63.927 23.6309C63.1283 22.859 62.7286 21.6655 62.7286 20.0504V13.4897H64.4717V20.0075C64.4717 21.1367 64.7188 21.9657 65.2125 22.4946C65.7065 23.0234 66.3748 23.2878 67.217 23.2878C68.1614 23.2878 68.9819 22.9305 69.6791 22.2158C70.3764 21.4869 70.8196 20.7007 71.0083 19.8574V13.4897ZM78.2902 9.63055V11.2385H76.5253V9.63055H78.2902ZM78.2902 13.4897V24.6385H76.5253V13.4897H78.2902ZM83.9943 9.63055V24.6385H82.2294V9.63055H83.9943ZM89.5946 9.63055V24.6385H87.8297V9.63055H89.5946ZM105.131 24.6385L103.235 20.4577H96.4369L94.5413 24.6385H92.6021L99.6398 9.63055H100.032L107.048 24.6385H105.131ZM97.1123 18.9569H102.559L99.8359 12.9109L97.1123 18.9569ZM118.054 13.4897H119.797V24.6385H118.054V21.9371C117.909 22.5517 117.473 23.1806 116.747 23.8238C116.02 24.467 115.105 24.7886 114.001 24.7886C112.781 24.7886 111.772 24.4027 110.973 23.6309C110.174 22.859 109.774 21.6655 109.774 20.0504V13.4897H111.518V20.0075C111.518 21.1367 111.764 21.9657 112.258 22.4946C112.752 23.0234 113.42 23.2878 114.263 23.2878C115.207 23.2878 116.028 22.9305 116.725 22.2158C117.422 21.4869 117.865 20.7007 118.054 19.8574V13.4897ZM132.33 9.63055H134.073V24.6385H132.33V22.4517C132.025 23.1377 131.516 23.7023 130.805 24.1454C130.093 24.5742 129.301 24.7886 128.43 24.7886C127.064 24.7886 125.829 24.2812 124.726 23.2664C123.622 22.2516 123.07 20.8508 123.07 19.0641C123.07 18.1494 123.237 17.3204 123.571 16.5771C123.905 15.8196 124.333 15.2193 124.856 14.7761C125.379 14.3188 125.946 13.9686 126.556 13.7256C127.18 13.4826 127.805 13.3611 128.43 13.3611C129.316 13.3611 130.115 13.5684 130.826 13.9829C131.538 14.3974 132.039 14.9405 132.33 15.6123V9.63055ZM125.989 22.1729C126.774 22.9162 127.66 23.2878 128.648 23.2878C129.635 23.2878 130.507 22.9305 131.262 22.2158C132.017 21.4869 132.395 20.4363 132.395 19.0641C132.395 17.692 132.017 16.6486 131.262 15.9339C130.507 15.2193 129.635 14.8619 128.648 14.8619C127.66 14.8619 126.774 15.2335 125.989 15.9768C125.205 16.7201 124.813 17.7492 124.813 19.0641C124.813 20.3791 125.205 21.4154 125.989 22.1729ZM139.49 9.63055V11.2385H137.725V9.63055H139.49ZM139.49 13.4897V24.6385H137.725V13.4897H139.49ZM146.806 23.2664C147.3 23.2664 147.801 23.1521 148.31 22.9233V24.3813C147.787 24.6385 147.14 24.7672 146.371 24.7672C144.903 24.7672 144.17 23.9739 144.17 22.3873V14.9048H142.775V13.4897H144.17V11.5601H145.913V13.4897H148.288V14.9048H145.913V22.2373C145.913 22.9234 146.211 23.2664 146.806 23.2664ZM157.251 16.1483C156.743 15.2621 155.987 14.819 154.985 14.819C154.433 14.819 153.983 14.962 153.634 15.2478C153.3 15.5194 153.133 15.8553 153.133 16.2555C153.133 16.6271 153.25 16.9416 153.482 17.1989C153.729 17.4561 154.15 17.6849 154.745 17.8849L155.9 18.2923C157.019 18.6782 157.854 19.0999 158.406 19.5573C158.958 20.0146 159.234 20.6865 159.234 21.5726C159.234 22.5446 158.806 23.3236 157.948 23.9096C157.091 24.4956 156.133 24.7886 155.072 24.7886C154.07 24.7886 153.155 24.5242 152.327 23.9953C151.499 23.4665 150.962 22.759 150.715 21.8728L152.24 21.4654C152.429 22.0229 152.792 22.4731 153.329 22.8161C153.867 23.1449 154.448 23.3093 155.072 23.3093C155.682 23.3093 156.227 23.1521 156.706 22.8376C157.186 22.5089 157.425 22.0872 157.425 21.5726C157.425 21.1295 157.273 20.765 156.968 20.4792C156.663 20.1933 156.198 19.9432 155.573 19.7288L154.266 19.2785C153.22 18.9069 152.472 18.4924 152.022 18.035C151.572 17.5777 151.346 16.9916 151.346 16.2769C151.346 15.4479 151.695 14.7547 152.392 14.1973C153.104 13.6398 153.961 13.3611 154.963 13.3611C156.779 13.3611 158.072 14.1544 158.842 15.7409L157.251 16.1483Z" fill="#EEEEEE"/>
<path d="M34.4631 17.85L19.5628 32L18.2451 30L32.3343 16.2V16.15L21.438 5.25L22.2489 3L35.1219 16.05L34.4631 17.85Z" fill="#EEEEEE"/>
<path fill-rule="evenodd" clip-rule="evenodd" d="M11.251 22.3C11.403 21.8 11.6057 21.35 11.8084 20.9C12.67 19.15 13.8357 17.6 15.1027 16.15C16.7752 14.3 18.6504 12.65 20.7789 11.3C21.6912 10.7 22.6541 10.2 23.7184 9.85C23.7691 9.79998 23.8705 9.79998 23.9718 9.75L23.3636 10.5C22.7048 11.3 21.9953 12.1 21.4378 13C21.3871 13.1 21.3364 13.1 21.235 13.1C20.8296 13.2 20.3735 13.3 19.9174 13.3C20.0694 13.5 20.3228 13.6 20.5255 13.7C20.6269 13.75 20.8296 13.75 20.8803 13.9C20.8803 14 20.7282 14.15 20.6776 14.25C20.5762 14.5 20.3735 14.65 20.1201 14.7C19.7147 14.8 19.3092 14.9 18.8531 14.9C18.8531 15 18.9038 15 18.9544 15.05C19.2078 15.25 19.5119 15.4 19.816 15.5C19.9174 15.55 19.9174 15.6 19.8667 15.7C19.7653 15.95 19.5626 16.05 19.3092 16.1C18.6504 16.3 17.9915 16.45 17.3326 16.5H17.282C17.434 16.65 17.586 16.75 17.7381 16.85C18.0422 17 18.3463 17.1 18.701 17.2C18.7517 17.2 18.8024 17.25 18.7517 17.3C18.4983 17.65 18.2449 18 17.8901 18.25C17.6367 18.5 17.3326 18.5 16.9779 18.5H15.8122C15.5081 18.5 15.2041 18.5 14.9 18.55C14.6466 18.6 14.4439 18.7 14.2918 18.9C13.785 19.45 13.4809 20.15 13.1262 20.8L12.9741 21.1C12.8727 21.5 12.6193 21.7 12.2646 21.85C11.9605 21.9 11.6057 22.1 11.251 22.3Z" fill="#EEEEEE"/>
<path opacity="0.98" d="M0.608169 14.2L15.5083 0L16.826 2L2.73676 15.85V15.9L13.6838 26.75L12.8729 29L0 16L0.608169 14.2Z" fill="#EEEEEE"/>
</g>
<defs>
<clipPath id="clip0_454_9783">
<rect width="160" height="32" fill="white"/>
</clipPath>
</defs>
</svg>
